<svg width="20" height="21" viewBox="0 0 20 21" fill="none" xmlns="http://www.w3.org/2000/svg">
<path d="M18.75 1.25217C18.75 0.748268 18.4453 0.291237 17.9766 0.0959246C17.5078 -0.0993879 16.9727 0.00998709 16.6133 0.365456L14.9102 2.07249C13.0352 3.94749 10.4922 5.00217 7.83984 5.00217H7.5H6.25H2.5C1.12109 5.00217 0 6.12327 0 7.50217V11.2522C0 12.6311 1.12109 13.7522 2.5 13.7522V18.7522C2.5 19.4436 3.05859 20.0022 3.75 20.0022H6.25C6.94141 20.0022 7.5 19.4436 7.5 18.7522V13.7522H7.83984C10.4922 13.7522 13.0352 14.8069 14.9102 16.6819L16.6133 18.385C16.9727 18.7444 17.5078 18.8498 17.9766 18.6545C18.4453 18.4592 18.75 18.0061 18.75 17.4983V11.7365C19.4766 11.3928 20 10.467 20 9.37717C20 8.28733 19.4766 7.36155 18.75 7.0178V1.25217ZM16.25 4.24827V9.37717V14.5061C13.9531 12.4162 10.957 11.2522 7.83984 11.2522H7.5V7.50217H7.83984C10.957 7.50217 13.9531 6.33811 16.25 4.24827Z" fill="white"/>
</svg>
