<svg width="30" height="30" viewBox="0 0 30 30" fill="none" xmlns="http://www.w3.org/2000/svg">
<path d="M1.875 1.875H28.125C29.1621 1.875 30 2.71289 30 3.75V5.625C30 6.66211 29.1621 7.5 28.125 7.5H1.875C0.837891 7.5 0 6.66211 0 5.625V3.75C0 2.71289 0.837891 1.875 1.875 1.875ZM1.875 9.375H28.125V24.375C28.125 26.4434 26.4434 28.125 24.375 28.125H5.625C3.55664 28.125 1.875 26.4434 1.875 24.375V9.375ZM9.375 14.0625C9.375 14.5781 9.79688 15 10.3125 15H19.6875C20.2031 15 20.625 14.5781 20.625 14.0625C20.625 13.5469 20.2031 13.125 19.6875 13.125H10.3125C9.79688 13.125 9.375 13.5469 9.375 14.0625Z" fill="#FFF5F5"/>
</svg>
