<svg width="18" height="20" viewBox="0 0 18 20" fill="none" xmlns="http://www.w3.org/2000/svg">
<g clip-path="url(#clip0_682_3)">
<path d="M6.25 4.375C6.25 2.99609 7.37109 1.875 8.75 1.875C10.1289 1.875 11.25 2.99609 11.25 4.375V6.25H6.25V4.375ZM4.375 6.25H1.875C0.839844 6.25 0 7.08984 0 8.125V16.25C0 18.3203 1.67969 20 3.75 20H13.75C15.8203 20 17.5 18.3203 17.5 16.25V8.125C17.5 7.08984 16.6602 6.25 15.625 6.25H13.125V4.375C13.125 1.95703 11.168 0 8.75 0C6.33203 0 4.375 1.95703 4.375 4.375V6.25ZM5.3125 8.125C5.56114 8.125 5.7996 8.22377 5.97541 8.39959C6.15123 8.5754 6.25 8.81386 6.25 9.0625C6.25 9.31114 6.15123 9.5496 5.97541 9.72541C5.7996 9.90123 5.56114 10 5.3125 10C5.06386 10 4.8254 9.90123 4.64959 9.72541C4.47377 9.5496 4.375 9.31114 4.375 9.0625C4.375 8.81386 4.47377 8.5754 4.64959 8.39959C4.8254 8.22377 5.06386 8.125 5.3125 8.125ZM11.25 9.0625C11.25 8.81386 11.3488 8.5754 11.5246 8.39959C11.7004 8.22377 11.9389 8.125 12.1875 8.125C12.4361 8.125 12.6746 8.22377 12.8504 8.39959C13.0262 8.5754 13.125 8.81386 13.125 9.0625C13.125 9.31114 13.0262 9.5496 12.8504 9.72541C12.6746 9.90123 12.4361 10 12.1875 10C11.9389 10 11.7004 9.90123 11.5246 9.72541C11.3488 9.5496 11.25 9.31114 11.25 9.0625Z" fill="white"/>
</g>
<defs>
<clipPath id="clip0_682_3">
<rect width="17.5" height="20" fill="white"/>
</clipPath>
</defs>
</svg>
