<svg width="29" height="25" viewBox="0 0 29 25" fill="none" xmlns="http://www.w3.org/2000/svg">
<path d="M0 1.17188C0 0.522461 0.523516 0 1.17424 0H3.40041C4.4768 0 5.43087 0.625 5.8761 1.5625H25.985C27.2718 1.5625 28.2112 2.7832 27.8736 4.02344L25.8676 11.46C25.4517 12.9932 24.0573 14.0625 22.4672 14.0625H8.3518L8.616 15.4541C8.72364 16.0059 9.20802 16.4062 9.77067 16.4062H23.8763C24.527 16.4062 25.0505 16.9287 25.0505 17.5781C25.0505 18.2275 24.527 18.75 23.8763 18.75H9.77067C8.07781 18.75 6.62468 17.5488 6.31155 15.8936L3.78693 2.66113C3.75268 2.47559 3.59122 2.34375 3.40041 2.34375H1.17424C0.523516 2.34375 0 1.82129 0 1.17188ZM6.26263 22.6562C6.26263 22.3485 6.32337 22.0437 6.44139 21.7593C6.55942 21.475 6.7324 21.2166 6.95048 20.999C7.16856 20.7813 7.42745 20.6087 7.71238 20.4909C7.99732 20.3731 8.3027 20.3125 8.61111 20.3125C8.91952 20.3125 9.22491 20.3731 9.50984 20.4909C9.79477 20.6087 10.0537 20.7813 10.2717 20.999C10.4898 21.2166 10.6628 21.475 10.7808 21.7593C10.8988 22.0437 10.9596 22.3485 10.9596 22.6562C10.9596 22.964 10.8988 23.2688 10.7808 23.5532C10.6628 23.8375 10.4898 24.0959 10.2717 24.3135C10.0537 24.5312 9.79477 24.7038 9.50984 24.8216C9.22491 24.9394 8.91952 25 8.61111 25C8.3027 25 7.99732 24.9394 7.71238 24.8216C7.42745 24.7038 7.16856 24.5312 6.95048 24.3135C6.7324 24.0959 6.55942 23.8375 6.44139 23.5532C6.32337 23.2688 6.26263 22.964 6.26263 22.6562ZM22.702 20.3125C23.3249 20.3125 23.9222 20.5594 24.3626 20.999C24.8031 21.4385 25.0505 22.0346 25.0505 22.6562C25.0505 23.2779 24.8031 23.874 24.3626 24.3135C23.9222 24.7531 23.3249 25 22.702 25C22.0792 25 21.4818 24.7531 21.0414 24.3135C20.601 23.874 20.3535 23.2779 20.3535 22.6562C20.3535 22.0346 20.601 21.4385 21.0414 20.999C21.4818 20.5594 22.0792 20.3125 22.702 20.3125Z" fill="white"/>
</svg>
