<svg width="23" height="20" viewBox="0 0 23 20" fill="none" xmlns="http://www.w3.org/2000/svg">
<g clip-path="url(#clip0_54_27)">
<path d="M3.75 3.125C3.75 2.08984 4.58984 1.25 5.625 1.25H16.875C17.9102 1.25 18.75 2.08984 18.75 3.125V15H3.75V3.125ZM15.9766 4.96094C15.6094 4.59375 15.0156 4.59375 14.6523 4.96094L10.3164 9.29688L8.48047 7.46094C8.11328 7.09375 7.51953 7.09375 7.15625 7.46094C6.79297 7.82812 6.78906 8.42187 7.15625 8.78516L9.65625 11.2852C10.0234 11.6523 10.6172 11.6523 10.9805 11.2852L15.9766 6.28906C16.3438 5.92188 16.3438 5.32812 15.9766 4.96484V4.96094ZM0 13.125C0 12.0898 0.839844 11.25 1.875 11.25H2.5V16.25H20V11.25H20.625C21.6602 11.25 22.5 12.0898 22.5 13.125V16.875C22.5 17.9102 21.6602 18.75 20.625 18.75H1.875C0.839844 18.75 0 17.9102 0 16.875V13.125Z" fill="white"/>
</g>
<defs>
<clipPath id="clip0_54_27">
<rect width="22.5" height="20" fill="white"/>
</clipPath>
</defs>
</svg>
