<svg width="15" height="15" viewBox="0 0 15 15" fill="none" xmlns="http://www.w3.org/2000/svg">
<g clip-path="url(#clip0_54_40)">
<path d="M7.5 15C9.48912 15 11.3968 14.2098 12.8033 12.8033C14.2098 11.3968 15 9.48912 15 7.5C15 5.51088 14.2098 3.60322 12.8033 2.1967C11.3968 0.790176 9.48912 0 7.5 0C5.51088 0 3.60322 0.790176 2.1967 2.1967C0.790176 3.60322 0 5.51088 0 7.5C0 9.48912 0.790176 11.3968 2.1967 12.8033C3.60322 14.2098 5.51088 15 7.5 15ZM6.32812 9.84375H7.03125V7.96875H6.32812C5.93848 7.96875 5.625 7.65527 5.625 7.26562C5.625 6.87598 5.93848 6.5625 6.32812 6.5625H7.73438C8.12402 6.5625 8.4375 6.87598 8.4375 7.26562V9.84375H8.67188C9.06152 9.84375 9.375 10.1572 9.375 10.5469C9.375 10.9365 9.06152 11.25 8.67188 11.25H6.32812C5.93848 11.25 5.625 10.9365 5.625 10.5469C5.625 10.1572 5.93848 9.84375 6.32812 9.84375ZM7.5 3.75C7.74864 3.75 7.9871 3.84877 8.16291 4.02459C8.33873 4.2004 8.4375 4.43886 8.4375 4.6875C8.4375 4.93614 8.33873 5.1746 8.16291 5.35041C7.9871 5.52623 7.74864 5.625 7.5 5.625C7.25136 5.625 7.0129 5.52623 6.83709 5.35041C6.66127 5.1746 6.5625 4.93614 6.5625 4.6875C6.5625 4.43886 6.66127 4.2004 6.83709 4.02459C7.0129 3.84877 7.25136 3.75 7.5 3.75Z" fill="#E58E27"/>
</g>
<defs>
<clipPath id="clip0_54_40">
<rect width="15" height="15" fill="white"/>
</clipPath>
</defs>
</svg>
