<svg width="45" height="45" viewBox="0 0 45 45" fill="none" xmlns="http://www.w3.org/2000/svg">
<g clip-path="url(#clip0_574_73)">
<path d="M22.5 45C28.4674 45 34.1903 42.6295 38.4099 38.4099C42.6295 34.1903 45 28.4674 45 22.5C45 16.5326 42.6295 10.8097 38.4099 6.5901C34.1903 2.37053 28.4674 0 22.5 0C16.5326 0 10.8097 2.37053 6.5901 6.5901C2.37053 10.8097 0 16.5326 0 22.5C0 28.4674 2.37053 34.1903 6.5901 38.4099C10.8097 42.6295 16.5326 45 22.5 45ZM32.4316 18.3691L21.1816 29.6191C20.3555 30.4453 19.0195 30.4453 18.2021 29.6191L12.5771 23.9941C11.751 23.168 11.751 21.832 12.5771 21.0146C13.4033 20.1973 14.7393 20.1885 15.5566 21.0146L19.6875 25.1455L29.4434 15.3809C30.2695 14.5547 31.6055 14.5547 32.4229 15.3809C33.2402 16.207 33.249 17.543 32.4229 18.3604L32.4316 18.3691Z" fill="#D2F5FF"/>
</g>
<defs>
<clipPath id="clip0_574_73">
<rect width="45" height="45" fill="white"/>
</clipPath>
</defs>
</svg>
