<svg width="23" height="30" viewBox="0 0 23 30" fill="none" xmlns="http://www.w3.org/2000/svg">
<g clip-path="url(#clip0_798_114)">
<path d="M3.75 0C1.68164 0 0 1.68164 0 3.75V26.25C0 28.3184 1.68164 30 3.75 30H18.75C20.8184 30 22.5 28.3184 22.5 26.25V9.375H15C13.9629 9.375 13.125 8.53711 13.125 7.5V0H3.75ZM15 0V7.5H22.5L15 0ZM12.6562 13.5938V19.5762L14.4727 17.7598C15.0234 17.209 15.9141 17.209 16.459 17.7598C17.0039 18.3105 17.0098 19.2012 16.459 19.7461L12.2402 23.9648C11.6895 24.5156 10.7988 24.5156 10.2539 23.9648L6.03516 19.7461C5.48438 19.1953 5.48438 18.3047 6.03516 17.7598C6.58594 17.2148 7.47656 17.209 8.02148 17.7598L9.83789 19.5762V13.5938C9.83789 12.8145 10.4648 12.1875 11.2441 12.1875C12.0234 12.1875 12.6504 12.8145 12.6504 13.5938H12.6562Z" fill="white"/>
</g>
<defs>
<clipPath id="clip0_798_114">
<rect width="22.5" height="30" fill="white"/>
</clipPath>
</defs>
</svg>
