<svg width="25" height="25" viewBox="0 0 25 25" fill="none" xmlns="http://www.w3.org/2000/svg">
<path d="M17.1875 4.6875H20.3125C21.1768 4.6875 21.875 5.38574 21.875 6.25V18.75C21.875 19.6143 21.1768 20.3125 20.3125 20.3125H17.1875C16.3232 20.3125 15.625 21.0107 15.625 21.875C15.625 22.7393 16.3232 23.4375 17.1875 23.4375H20.3125C22.9004 23.4375 25 21.3379 25 18.75V6.25C25 3.66211 22.9004 1.5625 20.3125 1.5625H17.1875C16.3232 1.5625 15.625 2.26074 15.625 3.125C15.625 3.98926 16.3232 4.6875 17.1875 4.6875ZM16.7285 13.6035C17.3389 12.9932 17.3389 12.002 16.7285 11.3916L10.4785 5.1416C9.86816 4.53125 8.87695 4.53125 8.2666 5.1416C7.65625 5.75195 7.65625 6.74316 8.2666 7.35352L11.8506 10.9375H1.5625C0.698242 10.9375 0 11.6357 0 12.5C0 13.3643 0.698242 14.0625 1.5625 14.0625H11.8506L8.2666 17.6465C7.65625 18.2568 7.65625 19.248 8.2666 19.8584C8.87695 20.4688 9.86816 20.4688 10.4785 19.8584L16.7285 13.6084V13.6035Z" fill="white"/>
</svg>
