<svg width="25" height="25" viewBox="0 0 25 25" fill="none" xmlns="http://www.w3.org/2000/svg">
<g clip-path="url(#clip0_498_61)">
<path d="M7.8125 4.6875C7.8125 3.4443 8.30636 2.25201 9.18544 1.37294C10.0645 0.49386 11.2568 0 12.5 0C13.7432 0 14.9355 0.49386 15.8146 1.37294C16.6936 2.25201 17.1875 3.4443 17.1875 4.6875C17.1875 5.9307 16.6936 7.12299 15.8146 8.00206C14.9355 8.88114 13.7432 9.375 12.5 9.375C11.2568 9.375 10.0645 8.88114 9.18544 8.00206C8.30636 7.12299 7.8125 5.9307 7.8125 4.6875ZM11.7188 12.1094V25L9.35547 23.8184C8.33496 23.3105 7.23145 22.9883 6.09375 22.876L1.40625 22.4072C0.610352 22.3242 0 21.6553 0 20.8496V10.9375C0 10.0732 0.698242 9.375 1.5625 9.375H3.04199C6.14746 9.375 9.1748 10.332 11.7188 12.1094ZM13.2812 25V12.1094C15.8252 10.332 18.8525 9.375 21.958 9.375H23.4375C24.3018 9.375 25 10.0732 25 10.9375V20.8496C25 21.6504 24.3896 22.3242 23.5938 22.4023L18.9062 22.8711C17.7734 22.9834 16.665 23.3057 15.6445 23.8135L13.2812 25Z" fill="#161A1E"/>
</g>
<defs>
<clipPath id="clip0_498_61">
<rect width="25" height="25" fill="white"/>
</clipPath>
</defs>
</svg>
