<svg width="25" height="25" viewBox="0 0 25 25" fill="none" xmlns="http://www.w3.org/2000/svg">
<path d="M3.125 3.125C3.125 2.26074 2.42676 1.5625 1.5625 1.5625C0.698242 1.5625 0 2.26074 0 3.125V19.5312C0 21.6895 1.74805 23.4375 3.90625 23.4375H23.4375C24.3018 23.4375 25 22.7393 25 21.875C25 21.0107 24.3018 20.3125 23.4375 20.3125H3.90625C3.47656 20.3125 3.125 19.9609 3.125 19.5312V3.125ZM22.9785 7.35352C23.5889 6.74316 23.5889 5.75195 22.9785 5.1416C22.3682 4.53125 21.377 4.53125 20.7666 5.1416L15.625 10.2881L12.8223 7.48535C12.2119 6.875 11.2207 6.875 10.6104 7.48535L5.1416 12.9541C4.53125 13.5645 4.53125 14.5557 5.1416 15.166C5.75195 15.7764 6.74316 15.7764 7.35352 15.166L11.7188 10.8057L14.5215 13.6084C15.1318 14.2188 16.123 14.2188 16.7334 13.6084L22.9834 7.3584L22.9785 7.35352Z" fill="#161A1E"/>
</svg>
