<svg width="28" height="25" viewBox="0 0 28 25" fill="none" xmlns="http://www.w3.org/2000/svg">
<path d="M8.85408 22.9297C8.5599 23.252 8.14999 23.4375 7.71596 23.4375C7.28193 23.4375 6.87202 23.252 6.57784 22.9297L2.33402 18.2422C1.76013 17.6074 1.79871 16.6162 2.43047 16.0352C3.06222 15.4541 4.03637 15.4932 4.61025 16.1328L6.17275 17.8564V3.125C6.17275 2.26074 6.86237 1.5625 7.71596 1.5625C8.56955 1.5625 9.25917 2.26074 9.25917 3.125V17.8564L10.8217 16.1279C11.3956 15.4932 12.3745 15.4492 13.0015 16.0303C13.6284 16.6113 13.6718 17.6025 13.0979 18.2373L8.85408 22.9248V22.9297ZM15.432 3.125C15.432 2.26074 16.1216 1.5625 16.9752 1.5625H23.1481C23.7702 1.5625 24.3344 1.94336 24.5755 2.5293C24.8167 3.11523 24.6816 3.78418 24.2428 4.2334L20.703 7.8125H23.1481C24.0016 7.8125 24.6913 8.51074 24.6913 9.375C24.6913 10.2393 24.0016 10.9375 23.1481 10.9375H16.9752C16.3531 10.9375 15.7889 10.5566 15.5478 9.9707C15.3066 9.38477 15.4417 8.71582 15.8805 8.2666L19.4202 4.6875H16.9752C16.1216 4.6875 15.432 3.98926 15.432 3.125ZM20.0616 12.5C20.6452 12.5 21.1805 12.832 21.4409 13.3643L24.5273 19.6143L25.2989 21.1768C25.6799 21.9482 25.3712 22.8857 24.6093 23.2715C23.8473 23.6572 22.9214 23.3447 22.5404 22.5732L22.1932 21.875H17.9301L17.5829 22.5732C17.2019 23.3447 16.276 23.6572 15.514 23.2715C14.752 22.8857 14.4434 21.9482 14.8244 21.1768L15.596 19.6143L18.6824 13.3643C18.9428 12.8369 19.4781 12.5 20.0616 12.5ZM19.0875 19.5312H21.0358L20.0616 17.5586L19.0875 19.5312Z" fill="white"/>
</svg>
