<svg width="18" height="20" viewBox="0 0 18 20" fill="none" xmlns="http://www.w3.org/2000/svg">
<g clip-path="url(#clip0_682_5)">
<path d="M6.66016 2.01562L5.91797 3.125H11.582L10.8398 2.01562C10.7812 1.92969 10.6836 1.875 10.5781 1.875H6.91797C6.8125 1.875 6.71484 1.92578 6.65625 2.01562H6.66016ZM12.4023 0.976562L13.8359 3.125H14.375H16.25H16.5625C17.082 3.125 17.5 3.54297 17.5 4.0625C17.5 4.58203 17.082 5 16.5625 5H16.25V16.875C16.25 18.6016 14.8516 20 13.125 20H4.375C2.64844 20 1.25 18.6016 1.25 16.875V5H0.9375C0.417969 5 0 4.58203 0 4.0625C0 3.54297 0.417969 3.125 0.9375 3.125H1.25H3.125H3.66406L5.09766 0.972656C5.50391 0.367187 6.1875 0 6.91797 0H10.5781C11.3086 0 11.9922 0.367187 12.3984 0.972656L12.4023 0.976562ZM3.125 5V16.875C3.125 17.5664 3.68359 18.125 4.375 18.125H13.125C13.8164 18.125 14.375 17.5664 14.375 16.875V5H3.125ZM6.25 7.5V15.625C6.25 15.9688 5.96875 16.25 5.625 16.25C5.28125 16.25 5 15.9688 5 15.625V7.5C5 7.15625 5.28125 6.875 5.625 6.875C5.96875 6.875 6.25 7.15625 6.25 7.5ZM9.375 7.5V15.625C9.375 15.9688 9.09375 16.25 8.75 16.25C8.40625 16.25 8.125 15.9688 8.125 15.625V7.5C8.125 7.15625 8.40625 6.875 8.75 6.875C9.09375 6.875 9.375 7.15625 9.375 7.5ZM12.5 7.5V15.625C12.5 15.9688 12.2188 16.25 11.875 16.25C11.5312 16.25 11.25 15.9688 11.25 15.625V7.5C11.25 7.15625 11.5312 6.875 11.875 6.875C12.2188 6.875 12.5 7.15625 12.5 7.5Z" fill="#F9F9F9"/>
</g>
<defs>
<clipPath id="clip0_682_5">
<rect width="17.5" height="20" fill="white"/>
</clipPath>
</defs>
</svg>
