<svg width="23" height="30" viewBox="0 0 23 30" fill="none" xmlns="http://www.w3.org/2000/svg">
<path d="M20.0092 8.82422C20.7393 8.0918 20.7393 6.90234 20.0092 6.16992C19.2792 5.4375 18.0935 5.4375 17.3635 6.16992L11.2135 12.3457L5.05775 6.17578C4.3277 5.44336 3.14209 5.44336 2.41204 6.17578C1.68199 6.9082 1.68199 8.09766 2.41204 8.83008L8.56783 15L2.41788 21.1758C1.68783 21.9082 1.68783 23.0977 2.41788 23.8301C3.14793 24.5625 4.33354 24.5625 5.06359 23.8301L11.2135 17.6543L17.3693 23.8242C18.0994 24.5566 19.285 24.5566 20.015 23.8242C20.7451 23.0918 20.7451 21.9023 20.015 21.1699L13.8592 15L20.0092 8.82422Z" fill="white"/>
</svg>
