<svg width="32" height="25" viewBox="0 0 32 25" fill="none" xmlns="http://www.w3.org/2000/svg">
<g clip-path="url(#clip0_249_160)">
<path d="M4.6875 6.25C4.6875 4.5924 5.34598 3.00269 6.51808 1.83058C7.69018 0.65848 9.2799 0 10.9375 0C12.5951 0 14.1848 0.65848 15.3569 1.83058C16.529 3.00269 17.1875 4.5924 17.1875 6.25C17.1875 7.9076 16.529 9.49732 15.3569 10.6694C14.1848 11.8415 12.5951 12.5 10.9375 12.5C9.2799 12.5 7.69018 11.8415 6.51808 10.6694C5.34598 9.49732 4.6875 7.9076 4.6875 6.25ZM0 23.5498C0 18.7402 3.89648 14.8438 8.70605 14.8438H13.1689C17.9785 14.8438 21.875 18.7402 21.875 23.5498C21.875 24.3506 21.2256 25 20.4248 25H1.4502C0.649414 25 0 24.3506 0 23.5498ZM24.6094 15.2344V12.1094H21.4844C20.835 12.1094 20.3125 11.5869 20.3125 10.9375C20.3125 10.2881 20.835 9.76562 21.4844 9.76562H24.6094V6.64062C24.6094 5.99121 25.1318 5.46875 25.7812 5.46875C26.4307 5.46875 26.9531 5.99121 26.9531 6.64062V9.76562H30.0781C30.7275 9.76562 31.25 10.2881 31.25 10.9375C31.25 11.5869 30.7275 12.1094 30.0781 12.1094H26.9531V15.2344C26.9531 15.8838 26.4307 16.4062 25.7812 16.4062C25.1318 16.4062 24.6094 15.8838 24.6094 15.2344Z" fill="#FFFCFC"/>
</g>
<defs>
<clipPath id="clip0_249_160">
<rect width="31.25" height="25" fill="white"/>
</clipPath>
</defs>
</svg>
