<svg width="79" height="70" viewBox="0 0 79 70" fill="none" xmlns="http://www.w3.org/2000/svg">
<g clip-path="url(#clip0_698_81)">
<path d="M34.125 64.4629C35.6016 64.9824 37.1875 63.9024 37.1875 62.3438V10.7461C37.1875 10.1719 36.9688 9.59766 36.5039 9.24219C33.8242 7.10938 27.6719 4.375 19.6875 4.375C12.7832 4.375 6.33008 6.19336 2.47461 7.66992C0.929688 8.27148 0 9.80274 0 11.457V62.084C0 63.7109 1.75 64.8457 3.29492 64.3399C7.60156 62.9043 14.4238 61.25 19.6875 61.25C24.3223 61.25 30.4883 63.1641 34.125 64.4629ZM44.625 64.4629C48.2617 63.1641 54.4277 61.25 59.0625 61.25C64.3262 61.25 71.1484 62.9043 75.4551 64.3399C77 64.8594 78.75 63.7109 78.75 62.084V11.457C78.75 9.80274 77.8203 8.27148 76.2754 7.68359C72.4199 6.19336 65.9668 4.375 59.0625 4.375C51.0781 4.375 44.9258 7.10938 42.2461 9.24219C41.7949 9.59766 41.5625 10.1719 41.5625 10.7461V62.3438C41.5625 63.9024 43.1621 64.9824 44.625 64.4629Z" fill="#161A1E"/>
</g>
<defs>
<clipPath id="clip0_698_81">
<rect width="78.75" height="70" fill="white"/>
</clipPath>
</defs>
</svg>
