<svg width="70" height="70" viewBox="0 0 70 70" fill="none" xmlns="http://www.w3.org/2000/svg">
<g clip-path="url(#clip0_698_79)">
<path d="M0.560547 5.22266C0.191406 4.67578 0 4.01953 0 3.36328C0 1.50391 1.50391 0 3.36328 0H18.3066C19.8379 0 21.2734 0.806641 22.0527 2.11914L31.418 17.7188C24.8281 18.5527 18.9355 21.6289 14.5469 26.1816L0.560547 5.22266ZM69.4258 5.22266L55.4531 26.1816C51.0645 21.6289 45.1719 18.5527 38.582 17.7188L47.9473 2.11914C48.7402 0.806641 50.1621 0 51.6934 0H66.6367C68.4961 0 70 1.50391 70 3.36328C70 4.01953 69.8086 4.67578 69.4395 5.22266H69.4258ZM10.9375 45.9375C10.9375 39.5557 13.4726 33.4353 17.9852 28.9227C22.4978 24.4102 28.6182 21.875 35 21.875C41.3818 21.875 47.5022 24.4102 52.0148 28.9227C56.5274 33.4353 59.0625 39.5557 59.0625 45.9375C59.0625 52.3193 56.5274 58.4397 52.0148 62.9523C47.5022 67.4649 41.3818 70 35 70C28.6182 70 22.4978 67.4649 17.9852 62.9523C13.4726 58.4397 10.9375 52.3193 10.9375 45.9375ZM36.1484 32.9629C35.6836 32.0059 34.3301 32.0059 33.8516 32.9629L30.7891 39.1699C30.5977 39.5527 30.2422 39.8125 29.832 39.8672L22.9688 40.8652C21.916 41.0156 21.5059 42.3008 22.2578 43.0527L27.2207 47.8926C27.5215 48.1934 27.6582 48.6035 27.5898 49.0273L26.4141 55.8496C26.2363 56.8887 27.3301 57.6953 28.2734 57.2031L34.3984 53.9766C34.7676 53.7852 35.2188 53.7852 35.5879 53.9766L41.7129 57.2031C42.6562 57.6953 43.75 56.9023 43.5723 55.8496L42.3965 49.0273C42.3281 48.6172 42.4648 48.1934 42.7656 47.8926L47.7285 43.0527C48.4941 42.3145 48.0703 41.0293 47.0176 40.8652L40.168 39.8672C39.7578 39.8125 39.3887 39.5391 39.2109 39.1699L36.1484 32.9629Z" fill="#161A1E"/>
</g>
<defs>
<clipPath id="clip0_698_79">
<rect width="70" height="70" fill="white"/>
</clipPath>
</defs>
</svg>
