<svg width="62" height="70" viewBox="0 0 62 70" fill="none" xmlns="http://www.w3.org/2000/svg">
<g clip-path="url(#clip0_698_75)">
<path d="M30.625 35C35.2663 35 39.7175 33.1563 42.9994 29.8744C46.2813 26.5925 48.125 22.1413 48.125 17.5C48.125 12.8587 46.2813 8.40752 42.9994 5.12563C39.7175 1.84374 35.2663 0 30.625 0C25.9837 0 21.5325 1.84374 18.2506 5.12563C14.9687 8.40752 13.125 12.8587 13.125 17.5C13.125 22.1413 14.9687 26.5925 18.2506 29.8744C21.5325 33.1563 25.9837 35 30.625 35ZM24.377 41.5625C10.9102 41.5625 0 52.4727 0 65.9395C0 68.1816 1.81836 70 4.06055 70H57.1895C59.4316 70 61.25 68.1816 61.25 65.9395C61.25 52.4727 50.3398 41.5625 36.873 41.5625H24.377Z" fill="#161A1E"/>
</g>
<defs>
<clipPath id="clip0_698_75">
<rect width="61.25" height="70" fill="white"/>
</clipPath>
</defs>
</svg>
